<svg width="25" height="34" viewBox="0 0 25 34" fill="none" xmlns="http://www.w3.org/2000/svg">
<path d="M12.1581 22.3745H24.1953L16.1558 15.2271L12.1581 22.3745Z" fill="#FF7FAC"/>
<path d="M12.0921 11.626L8.05029 15.2162L12.07 22.3746H12.1581L16.1559 15.2272L12.0921 11.626Z" fill="#FF4C80"/>
<path d="M8.0505 15.2158L0 22.3743H12.0702L8.0505 15.2158Z" fill="#FF745B"/>
<path d="M12.1142 22.4507L12.1579 22.3743H12.0705L12.1142 22.4507Z" fill="#FF9D51"/>
<path d="M12.0924 33.1343L16.0791 29.5881L8.14972 29.6212L12.0924 33.1343Z" fill="#FF745B"/>
<path d="M8.11676 29.5991L8.1498 29.6211L16.0792 29.5881L16.1122 29.5661L12.1145 22.4517L8.11676 29.5991Z" fill="#FFB955"/>
<path d="M12.1583 22.3743L12.1143 22.4514L16.112 29.5657L24.1955 22.3743H12.1583Z" fill="#FF9B92"/>
<path d="M12.0702 22.3743H0L8.11657 29.5988L12.1143 22.4514L12.0702 22.3743Z" fill="#FF9D51"/>
<path d="M0 0.865967V22.3743L8.05049 15.2159L0 0.865967Z" fill="#FF9D51"/>
<path d="M12.0923 11.6257L0 0.865967L8.05049 15.2159L12.0923 11.6257Z" fill="#FFB955"/>
<path d="M24.1954 0.865967L12.0922 11.6257L16.156 15.2269L24.1954 0.865967Z" fill="#E3398B"/>
<path d="M24.1957 22.3743V0.865967L16.1562 15.2269L24.1957 22.3743Z" fill="#F766B7"/>
</svg>
