<svg width="126" height="24" viewBox="0 0 126 24" fill="none" xmlns="http://www.w3.org/2000/svg">
<path d="M18.7311 5.22817C18.7311 5.19379 18.7001 5.17317 18.6726 5.19723C18.1329 5.66473 16.8301 6.04286 16.6651 6.06004C16.6603 6.06222 16.655 6.06335 16.6497 6.06335C16.6443 6.06335 16.6391 6.06222 16.6342 6.06004C15.6786 4.53379 13.4751 4.94629 13.4751 4.94629C10.237 5.63379 10.5945 8.90629 10.6564 9.25004C10.6564 9.26723 10.6564 9.28098 10.6254 9.28098C7.02294 9.45973 3.87762 6.11161 3.52012 5.71629C3.51658 5.71197 3.51212 5.7085 3.50706 5.70611C3.50201 5.70372 3.49649 5.70248 3.4909 5.70248C3.48532 5.70248 3.4798 5.70372 3.47474 5.70611C3.46969 5.7085 3.46523 5.71197 3.46169 5.71629C3.05741 6.46576 2.92922 7.33341 3.09948 8.16776C3.26974 9.00211 3.72765 9.75015 4.39325 10.2813C4.39895 10.2846 4.40369 10.2894 4.40698 10.2951C4.41027 10.3009 4.412 10.3073 4.412 10.3139C4.412 10.3206 4.41027 10.327 4.40698 10.3328C4.40369 10.3385 4.39895 10.3433 4.39325 10.3466C3.92377 10.3319 3.45962 10.2426 3.01825 10.0819C2.99762 10.0819 2.97356 10.0819 2.97356 10.1163C3.02169 12.2475 5.11169 13.21 5.59637 13.4129C5.60325 13.4151 5.60924 13.4195 5.61348 13.4254C5.61773 13.4312 5.62001 13.4383 5.62001 13.4455C5.62001 13.4528 5.61773 13.4598 5.61348 13.4657C5.60924 13.4715 5.60325 13.4759 5.59637 13.4782C5.16202 13.5728 4.71625 13.6041 4.27294 13.571C4.26697 13.5708 4.26103 13.5719 4.25562 13.5744C4.2502 13.577 4.24545 13.5807 4.24176 13.5854C4.23807 13.5901 4.23555 13.5956 4.23439 13.6015C4.23324 13.6073 4.23349 13.6134 4.23512 13.6191C4.67169 15.2622 6.81325 15.9497 7.19825 16.0632C7.2047 16.0645 7.21067 16.0676 7.21559 16.072C7.22051 16.0763 7.22419 16.0819 7.22628 16.0882C7.22836 16.0945 7.22877 16.1011 7.22747 16.1076C7.22618 16.1141 7.22321 16.1201 7.21887 16.125C5.89544 17.3075 3.28637 17.6204 2.75012 17.6754C2.743 17.6763 2.73629 17.6793 2.73078 17.6839C2.72528 17.6885 2.7212 17.6946 2.71904 17.7015C2.71688 17.7083 2.71671 17.7156 2.71856 17.7226C2.72041 17.7295 2.72421 17.7358 2.7295 17.7407C4.73012 19.1157 9.96887 20.2569 13.9701 16.8366C15.153 15.8057 16.0877 14.5208 16.7044 13.0779C17.3211 11.6351 17.6038 10.0715 17.5314 8.50411C17.5314 8.49838 17.533 8.49278 17.5361 8.48792C17.5391 8.48307 17.5434 8.47915 17.5486 8.47661C18.2671 8.05456 18.8659 7.45581 19.2879 6.73723C19.2879 6.70286 19.2879 6.68223 19.2364 6.69254C18.8884 6.81481 18.5127 6.83508 18.1536 6.75098C18.1536 6.75098 18.7414 5.73348 18.7311 5.22817Z" stroke="#261F22" stroke-width="1.03125" stroke-linecap="round"/>
<path d="M68.8761 4.88257H63.1236C60.9427 4.88257 59.1748 6.65048 59.1748 8.83132V15.1726C59.1748 17.3534 60.9427 19.1213 63.1236 19.1213H68.8761C71.0569 19.1213 72.8248 17.3534 72.8248 15.1726V8.83132C72.8248 6.65048 71.0569 4.88257 68.8761 4.88257Z" stroke="#261F22" stroke-width="1.125" stroke-linecap="round"/>
<path d="M66 15.48C67.922 15.48 69.48 13.922 69.48 12C69.48 10.0781 67.922 8.52002 66 8.52002C64.0781 8.52002 62.52 10.0781 62.52 12C62.52 13.922 64.0781 15.48 66 15.48Z" stroke="#261F22" stroke-width="1.125" stroke-linecap="round"/>
<path d="M70.1664 7.89747C70.4398 7.89747 70.6614 7.67585 70.6614 7.40247C70.6614 7.12909 70.4398 6.90747 70.1664 6.90747C69.893 6.90747 69.6714 7.12909 69.6714 7.40247C69.6714 7.67585 69.893 7.89747 70.1664 7.89747Z" stroke="#261F22" stroke-width="1.125"/>
<g clip-path="url(#clip0_99498_141)">
<path d="M118 4.25C113.727 4.25 110.25 7.72662 110.25 12C110.25 16.2734 113.727 19.75 118 19.75C122.273 19.75 125.75 16.2734 125.75 12C125.75 7.72662 122.273 4.25 118 4.25ZM123.124 7.82394C124.046 8.95038 124.604 10.3851 124.619 11.9475C124.401 11.9014 122.212 11.4575 120.009 11.7345C119.83 11.2957 119.66 10.9097 119.428 10.434C121.875 9.43475 122.984 8.01272 123.124 7.82394ZM122.388 7.05844C122.269 7.22803 121.273 8.56738 118.919 9.44966C117.834 7.45666 116.632 5.81941 116.449 5.57441C118.548 5.06837 120.76 5.61409 122.388 7.05844ZM115.186 6.01938C115.36 6.25872 116.543 7.898 117.64 9.84778C114.543 10.6701 111.816 10.6582 111.52 10.6543C111.949 8.60016 113.334 6.89291 115.186 6.01938ZM111.38 12.0101C111.38 11.9424 111.382 11.875 111.384 11.8078C111.673 11.8138 114.881 11.8551 118.187 10.8657C118.377 11.2366 118.558 11.6131 118.724 11.9892C116.33 12.6634 114.155 14.5994 113.082 16.4362C112.025 15.2627 111.38 13.7103 111.38 12.0101ZM113.937 17.2324C114.628 15.8188 116.505 13.9942 119.174 13.0837C120.103 15.4988 120.487 17.5229 120.586 18.1037C118.457 19.0103 115.898 18.7616 113.937 17.2324ZM121.699 17.4977C121.631 17.095 121.278 15.1571 120.413 12.7779C122.487 12.4458 124.31 12.9894 124.536 13.0608C124.241 14.9028 123.184 16.4935 121.699 17.4977Z" fill="#261F22"/>
</g>
<defs>
<clipPath id="clip0_99498_141">
<rect width="16" height="16" fill="white" transform="translate(110 4)"/>
</clipPath>
</defs>
</svg>
